# Blender v2.79 (sub 0) OBJ File: 'key_hole.blend'
# www.blender.org
mtllib key_hole.mtl
o Cube.001
v 0.000000 0.000000 0.000000
v 0.000000 0.300000 0.000000
v 0.000000 0.000000 -1.000000
v 0.000000 0.300000 -1.000000
v 1.000000 0.000000 0.000000
v 1.000000 0.300000 0.000000
v 1.000000 0.000000 -1.000000
v 1.000000 0.300000 -1.000000
vn -1.0000 0.0000 0.0000
vn 0.0000 0.0000 -1.0000
vn 1.0000 0.0000 0.0000
vn 0.0000 0.0000 1.0000
vn 0.0000 -1.0000 0.0000
vn 0.0000 1.0000 0.0000
usemtl Material
s off
f 2//1 3//1 1//1
f 4//2 7//2 3//2
f 8//3 5//3 7//3
f 6//4 1//4 5//4
f 7//5 1//5 3//5
f 4//6 6//6 8//6
f 2//1 4//1 3//1
f 4//2 8//2 7//2
f 8//3 6//3 5//3
f 6//4 2//4 1//4
f 7//5 5//5 1//5
f 4//6 2//6 6//6
o Cube
v 0.454948 0.234989 -0.439115
v 0.454948 0.234989 -0.560884
v 1.000000 0.234989 -0.439115
v 1.000000 0.234989 -0.560884
v 0.329118 0.234989 -0.254218
v 0.283852 0.234989 -0.367261
v 0.043943 0.234989 -0.280854
v 0.120467 0.234989 -0.375574
v 0.049946 0.234989 -0.666145
v 0.150152 0.234989 -0.596960
v 0.326990 0.234989 -0.761606
v 0.297949 0.234989 -0.643350
v 0.455342 0.234989 -0.558128
v 0.378785 0.234989 -0.463436
v 0.858032 0.234989 -0.439115
v 1.000000 0.234989 -0.340662
v 0.858032 0.234989 -0.340662
v 0.454948 0.316972 -0.560884
v 0.454948 0.316972 -0.439115
v 1.000000 0.316972 -0.560884
v 1.000000 0.316972 -0.439115
v 0.858032 0.316972 -0.439115
v 0.283852 0.316972 -0.367261
v 0.329118 0.316972 -0.254218
v 0.120467 0.316972 -0.375574
v 0.043943 0.316972 -0.280854
v 0.150152 0.316972 -0.596960
v 0.049946 0.316972 -0.666145
v 0.297949 0.316972 -0.643350
v 0.326990 0.316972 -0.761606
v 0.378785 0.316972 -0.463436
v 0.455342 0.316972 -0.558128
v 0.858032 0.316972 -0.340662
v 1.000000 0.316972 -0.340662
vn 0.0000 -1.0000 -0.0000
vn 0.0000 1.0000 0.0000
vn -0.9122 0.0000 0.4098
vn -0.9999 0.0000 -0.0156
vn 0.0000 0.0000 1.0000
vn 0.9911 0.0000 0.1329
vn 0.8267 0.0000 0.5626
vn -0.7494 0.0000 -0.6622
vn 1.0000 0.0000 0.0000
vn -0.3258 0.0000 -0.9454
vn -1.0000 0.0000 0.0000
vn 0.2995 0.0000 0.9541
vn -0.0930 0.0000 0.9957
vn 0.0000 0.0000 -1.0000
vn 0.7776 0.0000 0.6287
vn 0.0508 0.0000 -0.9987
vn 0.8458 0.0000 -0.5335
usemtl Blackish
s off
f 12//7 23//7 10//7
f 9//7 14//7 10//7
f 13//7 16//7 14//7
f 17//7 16//7 15//7
f 19//7 18//7 17//7
f 21//7 20//7 19//7
f 24//7 23//7 11//7
f 27//8 30//8 26//8
f 27//8 31//8 32//8
f 32//8 33//8 34//8
f 33//8 36//8 34//8
f 35//8 38//8 36//8
f 37//8 40//8 38//8
f 30//8 42//8 29//8
f 22//9 37//9 20//9
f 15//10 36//10 17//10
f 23//11 27//11 9//11
f 18//12 33//12 16//12
f 9//13 32//13 13//13
f 24//11 41//11 25//11
f 14//14 26//14 10//14
f 11//15 42//15 24//15
f 17//16 38//16 19//16
f 25//17 30//17 23//17
f 20//18 35//18 18//18
f 13//19 34//19 15//19
f 10//20 28//20 12//20
f 21//21 39//21 22//21
f 16//22 31//22 14//22
f 12//15 29//15 11//15
f 19//23 40//23 21//23
f 9//7 10//7 23//7
f 12//7 11//7 23//7
f 9//7 13//7 14//7
f 13//7 15//7 16//7
f 17//7 18//7 16//7
f 19//7 20//7 18//7
f 21//7 22//7 20//7
f 24//7 25//7 23//7
f 28//8 26//8 30//8
f 30//8 29//8 28//8
f 27//8 26//8 31//8
f 32//8 31//8 33//8
f 33//8 35//8 36//8
f 35//8 37//8 38//8
f 37//8 39//8 40//8
f 30//8 41//8 42//8
f 22//9 39//9 37//9
f 15//10 34//10 36//10
f 23//11 30//11 27//11
f 18//12 35//12 33//12
f 9//13 27//13 32//13
f 24//11 42//11 41//11
f 14//14 31//14 26//14
f 11//15 29//15 42//15
f 17//16 36//16 38//16
f 25//17 41//17 30//17
f 20//18 37//18 35//18
f 13//19 32//19 34//19
f 10//20 26//20 28//20
f 21//21 40//21 39//21
f 16//22 33//22 31//22
f 12//15 28//15 29//15
f 19//23 38//23 40//23
