# Blender v2.79 (sub 0) OBJ File: 'rwall_off.blend'
# www.blender.org
mtllib rwall_off.mtl
o Plane
v 0.430675 0.010000 -0.430675
v 0.569325 0.010000 -0.430675
v 0.430675 0.010000 -0.569325
v 0.569325 0.010000 -0.569325
vn 0.0000 1.0000 0.0000
usemtl Red
s off
f 2//1 3//1 1//1
f 2//1 4//1 3//1
o Cube
v 0.000000 0.000000 0.000000
v 0.000000 0.000000 -1.000000
v 1.000000 0.000000 0.000000
v 1.000000 0.000000 -1.000000
vn 0.0000 -1.0000 0.0000
usemtl Blackish
s off
f 8//2 5//2 6//2
f 8//2 7//2 5//2
